<svg width="20" height="20" viewBox="0 0 20 20" fill="none" xmlns="http://www.w3.org/2000/svg">
<g clip-path="url(#clip0_104_742)">
<path d="M10 5C9.33696 5 8.70107 5.26339 8.23223 5.73223C7.76339 6.20107 7.5 6.83696 7.5 7.5V17.5C7.5 18.163 7.76339 18.7989 8.23223 19.2678C8.70107 19.7366 9.33696 20 10 20C10.663 20 11.2989 19.7366 11.7678 19.2678C12.2366 18.7989 12.5 18.163 12.5 17.5V7.5C12.5 6.83696 12.2366 6.20107 11.7678 5.73223C11.2989 5.26339 10.663 5 10 5Z" fill="#DDDDDD"/>
<path d="M17.5 0C16.837 0 16.2011 0.263392 15.7322 0.732233C15.2634 1.20107 15 1.83696 15 2.5V17.5C15 18.163 15.2634 18.7989 15.7322 19.2678C16.2011 19.7366 16.837 20 17.5 20C18.163 20 18.7989 19.7366 19.2678 19.2678C19.7366 18.7989 20 18.163 20 17.5V2.5C20 1.83696 19.7366 1.20107 19.2678 0.732233C18.7989 0.263392 18.163 0 17.5 0V0Z" fill="#DDDDDD"/>
<path d="M2.5 10C1.83696 10 1.20107 10.2634 0.732233 10.7322C0.263392 11.2011 0 11.837 0 12.5L0 17.5C0 18.163 0.263392 18.7989 0.732233 19.2678C1.20107 19.7366 1.83696 20 2.5 20C3.16304 20 3.79893 19.7366 4.26777 19.2678C4.73661 18.7989 5 18.163 5 17.5V12.5C5 11.837 4.73661 11.2011 4.26777 10.7322C3.79893 10.2634 3.16304 10 2.5 10Z" fill="#DDDDDD"/>
</g>
<defs>
<clipPath id="clip0_104_742">
<rect width="20" height="20" fill="white"/>
</clipPath>
</defs>
</svg>
