<svg width="27" height="21" viewBox="0 0 27 21" fill="none" xmlns="http://www.w3.org/2000/svg">
<path d="M21.701 7.48996L13.4248 7.48996C13.0451 7.48996 12.7266 7.3613 12.4692 7.10397C12.2128 6.84753 12.0846 6.52944 12.0846 6.1497C12.0846 5.76996 12.2128 5.45142 12.4692 5.19409C12.7266 4.93765 13.0451 4.80943 13.4248 4.80943L21.701 4.80943L19.188 2.29644C18.9423 2.05072 18.8136 1.7438 18.802 1.37568C18.7912 1.00666 18.9199 0.68812 19.188 0.420068C19.4337 0.152015 19.7406 0.0121807 20.1087 0.000565016C20.4777 -0.0101571 20.7963 0.118508 21.0643 0.386561L25.8893 5.21151C26.0233 5.34554 26.118 5.49073 26.1734 5.6471C26.2297 5.80346 26.2579 5.971 26.2579 6.1497C26.2579 6.3284 26.2297 6.49593 26.1734 6.6523C26.118 6.80866 26.0233 6.95386 25.8893 7.08788L21.0643 11.9128C20.8186 12.1586 20.5117 12.2814 20.1436 12.2814C19.7746 12.2814 19.456 12.1474 19.188 11.8793C18.9423 11.6113 18.8136 11.2985 18.802 10.9411C18.7912 10.5837 18.9199 10.271 19.188 10.003L21.701 7.48996ZM5.1487 15.5316L7.66169 18.0445C7.95208 18.3349 8.08611 18.6588 8.06377 19.0162C8.04143 19.3736 7.90741 19.6752 7.66169 19.9209C7.39364 20.189 7.0751 20.323 6.70608 20.323C6.33796 20.323 6.03104 20.2001 5.78532 19.9544L0.96037 15.1295C0.826343 14.9954 0.731184 14.8503 0.674893 14.6939C0.619495 14.5375 0.591797 14.37 0.591797 14.1913C0.591797 14.0126 0.619495 13.8451 0.674893 13.6887C0.731184 13.5323 0.826343 13.3871 0.960369 13.2531L5.78532 8.42815C6.03104 8.18243 6.34377 8.05958 6.72351 8.05958C7.10325 8.05958 7.41598 8.18243 7.66169 8.42815C7.92974 8.6962 8.06377 9.01429 8.06377 9.38242C8.06377 9.75144 7.92975 10.07 7.66169 10.338L5.1487 12.851L13.4248 12.851C13.8046 12.851 14.1227 12.9792 14.3791 13.2357C14.6364 13.493 14.7651 13.8115 14.7651 14.1913C14.7651 14.571 14.6364 14.8891 14.3791 15.1456C14.1227 15.4029 13.8046 15.5316 13.4248 15.5316L5.1487 15.5316Z" fill="#DDDDDD"/>
</svg>
