<svg width="16" height="17" viewBox="0 0 16 17" fill="none" xmlns="http://www.w3.org/2000/svg">
<path d="M8.916 0.357136C8.66844 0.127789 8.34068 0 8 0C7.65932 0 7.33156 0.127789 7.084 0.357136L0.625334 6.33853C0.427576 6.52191 0.270109 6.74293 0.162582 6.98803C0.0550548 7.23314 -0.000268763 7.49718 9.81669e-07 7.76398V15.0415C0.00035445 15.561 0.211224 16.0592 0.586259 16.4264C0.961293 16.7937 1.4698 17 2 17H4C4.53043 17 5.03914 16.7935 5.41421 16.426C5.78929 16.0584 6 15.56 6 15.0402V11.7738C6 11.6005 6.07024 11.4344 6.19526 11.3119C6.32029 11.1893 6.48986 11.1205 6.66667 11.1205H9.33333C9.51015 11.1205 9.67971 11.1893 9.80474 11.3119C9.92976 11.4344 10 11.6005 10 11.7738V15.0402C10 15.56 10.2107 16.0584 10.5858 16.426C10.9609 16.7935 11.4696 17 12 17H14C14.5304 17 15.0391 16.7935 15.4142 16.426C15.7893 16.0584 16 15.56 16 15.0402V7.76267C15.9999 7.496 15.9443 7.23215 15.8365 6.98728C15.7288 6.7424 15.5712 6.52165 15.3733 6.33853L8.916 0.354523V0.357136Z" fill="#DDDDDD"/>
</svg>
