<svg width="20" height="20" viewBox="0 0 20 20" fill="none" xmlns="http://www.w3.org/2000/svg">
<path d="M0 2.5C0 1.83696 0.263392 1.20107 0.732233 0.732233C1.20107 0.263392 1.83696 0 2.5 0H15C15.8841 0 16.7319 0.351189 17.357 0.976311C17.9821 1.60143 18.3333 2.44928 18.3333 3.33333V3.78C18.8401 4.07255 19.2608 4.49333 19.5534 5.00005C19.846 5.50676 20 6.08156 20 6.66667V16.6667C20 17.5507 19.6488 18.3986 19.0237 19.0237C18.3986 19.6488 17.5507 20 16.6667 20H4.16667C3.0616 20 2.00179 19.561 1.22039 18.7796C0.438987 17.9982 0 16.9384 0 15.8333V2.5ZM1.66667 2.5C1.66667 2.72101 1.75446 2.93298 1.91074 3.08926C2.06702 3.24554 2.27899 3.33333 2.5 3.33333H16.6667C16.6667 2.89131 16.4911 2.46738 16.1785 2.15482C15.8659 1.84226 15.442 1.66667 15 1.66667H2.5C2.27899 1.66667 2.06702 1.75446 1.91074 1.91074C1.75446 2.06702 1.66667 2.27899 1.66667 2.5ZM14.1667 10C13.9457 10 13.7337 10.0878 13.5774 10.2441C13.4211 10.4004 13.3333 10.6123 13.3333 10.8333C13.3333 11.0543 13.4211 11.2663 13.5774 11.4226C13.7337 11.5789 13.9457 11.6667 14.1667 11.6667H15.8333C16.0543 11.6667 16.2663 11.5789 16.4226 11.4226C16.5789 11.2663 16.6667 11.0543 16.6667 10.8333C16.6667 10.6123 16.5789 10.4004 16.4226 10.2441C16.2663 10.0878 16.0543 10 15.8333 10H14.1667Z" fill="white"/>
</svg>
