<svg width="7" height="12" viewBox="0 0 7 12" fill="none" xmlns="http://www.w3.org/2000/svg">
<path d="M5.35532 1.11854L1.11612 5.69846C1.04167 5.77891 1 5.8868 1 5.99914C1 6.11148 1.04167 6.21937 1.11612 6.29981L5.35532 10.8815C5.39001 10.919 5.43147 10.9488 5.47728 10.9692C5.52308 10.9895 5.57229 11 5.62201 11C5.67173 11 5.72094 10.9895 5.76675 10.9692C5.81255 10.9488 5.85402 10.919 5.8887 10.8815C5.96005 10.8045 6 10.7013 6 10.5937C6 10.4862 5.96005 10.3829 5.8887 10.306L1.90228 5.99914L5.8887 1.69318C5.95981 1.61629 5.9996 1.5132 5.9996 1.40586C5.9996 1.29853 5.95981 1.19543 5.8887 1.11854C5.85402 1.08102 5.81255 1.05121 5.76675 1.03085C5.72094 1.01049 5.67173 1 5.62201 1C5.57229 1 5.52308 1.01049 5.47728 1.03085C5.43147 1.05121 5.39001 1.08102 5.35532 1.11854Z" fill="#908DA0" stroke="#908DA0"/>
</svg>
