<svg width="65" height="85" viewBox="0 0 65 85" fill="none" xmlns="http://www.w3.org/2000/svg">
<path fill-rule="evenodd" clip-rule="evenodd" d="M0.742168 26.9078L32.911 0.567292C33.877 -0.223761 35.1507 -0.166692 36.1213 0.608706L69.049 26.9437C70.0178 27.7182 69.9763 29.4043 69.0066 30.1539L35.3873 56.1316C34.4139 56.884 33.133 56.8794 32.1771 56.0902L0.699787 30.1171C-0.255186 29.3288 -0.224777 27.6988 0.742168 26.9069V26.9078Z" fill="#C9CCFF"/>
<path fill-rule="evenodd" clip-rule="evenodd" d="M1.25247 54.6951L33.4213 28.3546C34.3874 27.5636 35.661 27.6207 36.6316 28.3961L69.5593 54.731C70.5281 55.5055 70.4866 57.1917 69.5169 57.9413L35.8977 83.919C34.9243 84.6713 33.6433 84.6667 32.6874 83.8775L1.21011 57.9044C0.25514 57.1161 0.285526 55.4862 1.25247 54.6942V54.6951Z" fill="#C9CCFF"/>
<path fill-rule="evenodd" clip-rule="evenodd" d="M15.9261 42.6801L33.4213 28.3537C34.3874 27.5626 35.661 27.6197 36.6316 28.3951L53.659 42.0134L35.3884 56.1317C34.415 56.884 33.134 56.8794 32.1781 56.0902L15.9261 42.6801Z" fill="white"/>
</svg>
