<svg width="52" height="51" viewBox="0 0 52 51" fill="none" xmlns="http://www.w3.org/2000/svg">
<path d="M48.5832 25.6858C50.2708 25.6858 51.6583 24.3125 51.4497 22.6379C50.8665 17.9541 48.9472 13.5059 45.8852 9.82596C42.165 5.35496 36.9881 2.29454 31.2366 1.16616C25.485 0.0377796 19.5147 0.911256 14.343 3.63776C9.17119 6.36426 5.11792 10.7751 2.87378 16.1187C0.629641 21.4623 0.333487 27.4081 2.03578 32.9429C3.73807 38.4777 7.33348 43.2592 12.2094 46.4725C17.0853 49.6859 22.94 51.1323 28.776 50.5654C33.5803 50.0987 38.1273 48.2913 41.8981 45.3852C43.2384 44.3522 43.2291 42.3914 42.0243 41.2031C40.8428 40.0377 38.9558 40.061 37.6074 41.0284C34.8537 43.0041 31.6015 44.2343 28.177 44.567C23.7481 44.9972 19.3049 43.8995 15.6046 41.4609C11.9042 39.0223 9.17565 35.3936 7.88377 31.1932C6.5919 26.9928 6.81665 22.4806 8.51973 18.4253C10.2228 14.37 13.2989 11.0226 17.2237 8.95347C21.1486 6.88432 25.6795 6.22144 30.0443 7.07777C34.4092 7.9341 38.338 10.2567 41.1613 13.6497C43.3256 16.2508 44.7376 19.3576 45.2788 22.6437C45.553 24.3088 46.8957 25.6858 48.5832 25.6858Z" fill="white"/>
</svg>
