<svg width="16" height="16" viewBox="0 0 16 16" fill="none" xmlns="http://www.w3.org/2000/svg">
<path d="M8 0C6.41775 0 4.87103 0.469192 3.55544 1.34824C2.23985 2.22729 1.21447 3.47672 0.608967 4.93853C0.00346628 6.40034 -0.15496 8.00887 0.153721 9.56072C0.462403 11.1126 1.22433 12.538 2.34315 13.6569C3.46197 14.7757 4.88743 15.5376 6.43928 15.8463C7.99113 16.155 9.59966 15.9965 11.0615 15.391C12.5233 14.7855 13.7727 13.7602 14.6518 12.4446C15.5308 11.129 16 9.58225 16 8C15.9959 5.87952 15.1518 3.84705 13.6524 2.34764C12.153 0.848226 10.1205 0.00406613 8 0ZM8 14.7692C6.66117 14.7692 5.35241 14.3722 4.23922 13.6284C3.12603 12.8846 2.2584 11.8274 1.74605 10.5905C1.2337 9.35356 1.09965 7.99249 1.36084 6.67939C1.62203 5.36629 2.26674 4.16012 3.21343 3.21343C4.16013 2.26674 5.36629 1.62203 6.67939 1.36084C7.99249 1.09965 9.35356 1.2337 10.5905 1.74605C11.8274 2.25839 12.8846 3.12602 13.6284 4.23922C14.3722 5.35241 14.7692 6.66117 14.7692 8C14.7672 9.79468 14.0534 11.5153 12.7843 12.7843C11.5153 14.0534 9.79469 14.7672 8 14.7692ZM11.0769 9.53846C11.0749 10.1091 10.8473 10.6557 10.4438 11.0592C10.0404 11.4627 9.49369 11.6903 8.92308 11.6923H8.61539V12.3077C8.61539 12.4709 8.55055 12.6274 8.43514 12.7428C8.31974 12.8582 8.16321 12.9231 8 12.9231C7.83679 12.9231 7.68027 12.8582 7.56486 12.7428C7.44945 12.6274 7.38462 12.4709 7.38462 12.3077V11.6923H6.15385C5.99064 11.6923 5.83411 11.6275 5.71871 11.5121C5.6033 11.3967 5.53846 11.2401 5.53846 11.0769C5.53846 10.9137 5.6033 10.7572 5.71871 10.6418C5.83411 10.5264 5.99064 10.4615 6.15385 10.4615H8.92308C9.16789 10.4615 9.40268 10.3643 9.57579 10.1912C9.7489 10.0181 9.84616 9.78327 9.84616 9.53846C9.84616 9.29364 9.7489 9.05886 9.57579 8.88575C9.40268 8.71264 9.16789 8.61538 8.92308 8.61538H7.07692C6.50569 8.61538 5.95785 8.38846 5.55393 7.98454C5.15 7.58061 4.92308 7.03277 4.92308 6.46154C4.92308 5.8903 5.15 5.34246 5.55393 4.93854C5.95785 4.53461 6.50569 4.30769 7.07692 4.30769H7.38462V3.69231C7.38462 3.5291 7.44945 3.37257 7.56486 3.25716C7.68027 3.14176 7.83679 3.07692 8 3.07692C8.16321 3.07692 8.31974 3.14176 8.43514 3.25716C8.55055 3.37257 8.61539 3.5291 8.61539 3.69231V4.30769H9.84616C10.0094 4.30769 10.1659 4.37253 10.2813 4.48793C10.3967 4.60334 10.4615 4.75987 10.4615 4.92308C10.4615 5.08629 10.3967 5.24281 10.2813 5.35822C10.1659 5.47363 10.0094 5.53846 9.84616 5.53846H7.07692C6.83211 5.53846 6.59732 5.63571 6.42421 5.80882C6.2511 5.98193 6.15385 6.21672 6.15385 6.46154C6.15385 6.70635 6.2511 6.94114 6.42421 7.11425C6.59732 7.28736 6.83211 7.38461 7.07692 7.38461H8.92308C9.49369 7.38664 10.0404 7.61421 10.4438 8.0177C10.8473 8.42119 11.0749 8.96785 11.0769 9.53846Z" fill="#4E4E50"/>
</svg>
