<svg width="11" height="14" viewBox="0 0 11 14" fill="none" xmlns="http://www.w3.org/2000/svg">
<path d="M10.7445 7.84508C10.6659 7.75804 10.5724 7.68896 10.4695 7.64182C10.3665 7.59468 10.256 7.57041 10.1444 7.57041C10.0329 7.57041 9.9224 7.59468 9.81941 7.64182C9.71642 7.68896 9.62295 7.75804 9.54438 7.84508L6.76386 10.9001L6.76386 1.61436C6.76386 1.36809 6.67481 1.1319 6.51632 0.957763C6.35782 0.783623 6.14286 0.685791 5.91871 0.685791C5.69456 0.685791 5.4796 0.783623 5.3211 0.957763C5.16261 1.1319 5.07357 1.36809 5.07357 1.61436L5.07357 10.9001L2.29304 7.84508C2.21447 7.75804 2.121 7.68896 2.01801 7.64182C1.91502 7.59468 1.80455 7.57041 1.69298 7.57041C1.58141 7.57041 1.47095 7.59468 1.36796 7.64182C1.26497 7.68896 1.1715 7.75804 1.09293 7.84508C0.935521 8.01906 0.847168 8.2544 0.847168 8.49972C0.847168 8.74503 0.935521 8.98038 1.09293 9.15436L4.72706 13.1379C5.04259 13.4867 5.47114 13.6837 5.91871 13.6858C6.36335 13.6813 6.78845 13.4844 7.10191 13.1379L10.736 9.15436C10.8946 8.98161 10.9845 8.74695 10.986 8.50163C10.9876 8.25632 10.9008 8.02028 10.7445 7.84508Z" fill="#5B63E6"/>
</svg>
