<svg width="9" height="7" viewBox="0 0 9 7" fill="none" xmlns="http://www.w3.org/2000/svg">
<path d="M0.680423 0L8.31958 0C8.45471 0.000765196 8.58665 0.0556288 8.69869 0.157654C8.81074 0.259678 8.89787 0.404283 8.94907 0.573181C9.00026 0.742079 9.01323 0.927686 8.98631 1.10653C8.9594 1.28538 8.89383 1.44943 8.79788 1.57795L4.98513 6.72705C4.92161 6.81354 4.84604 6.88219 4.76278 6.92903C4.67951 6.97588 4.5902 7 4.5 7C4.4098 7 4.32049 6.97588 4.23722 6.92903C4.15396 6.88219 4.07839 6.81354 4.01487 6.72705L0.202122 1.57795C0.106173 1.44943 0.0405975 1.28538 0.0136861 1.10653C-0.0132253 0.927686 -0.00026383 0.742079 0.0509319 0.573181C0.102128 0.404283 0.189258 0.259678 0.301306 0.157654C0.413354 0.0556288 0.545287 0.000765196 0.680423 0V0Z" fill="#908DA0"/>
</svg>
