<svg width="14" height="20" viewBox="0 0 14 20" fill="none" xmlns="http://www.w3.org/2000/svg">
<path d="M8.39998 17.1259L6.58698 15.3129L5.59998 16.2999L8.39998 19.0999L14 13.4999L13.013 12.5129L8.39998 17.1259Z" fill="#4E4E50"/>
<path d="M1.4 17.6999V5.0999H9.8V11.3999H11.2V2.2999C11.1996 1.92871 11.052 1.57283 10.7895 1.31036C10.5271 1.04789 10.1712 0.900273 9.8 0.899902H1.4C1.02881 0.900273 0.672931 1.04789 0.41046 1.31036C0.147989 1.57283 0.000370634 1.92871 0 2.2999V17.6999C0.000370634 18.0711 0.147989 18.427 0.41046 18.6894C0.672931 18.9519 1.02881 19.0995 1.4 19.0999H4.2V17.6999H1.4ZM1.4 2.2999H9.8V3.6999H1.4V2.2999Z" fill="#4E4E50"/>
</svg>
