<svg width="16" height="16" viewBox="0 0 16 16" fill="none" xmlns="http://www.w3.org/2000/svg">
<path d="M15.0367 9.10796L13.77 4.55062C13.3987 3.21551 12.5918 2.04281 11.4775 1.21894C10.3633 0.395058 9.00559 -0.0327193 7.6203 0.00360073C6.235 0.0399208 4.9016 0.538254 3.83203 1.41939C2.76247 2.30052 2.01812 3.51389 1.71732 4.86662L0.736655 9.27662C0.628331 9.76391 0.630836 10.2693 0.743983 10.7555C0.85713 11.2417 1.07803 11.6963 1.39038 12.0857C1.70272 12.475 2.09853 12.7893 2.5486 13.0053C2.99866 13.2212 3.49147 13.3333 3.99065 13.3333H4.73332C4.88633 14.0868 5.29514 14.7643 5.89048 15.2509C6.48582 15.7375 7.23108 16.0033 7.99999 16.0033C8.76889 16.0033 9.51415 15.7375 10.1095 15.2509C10.7048 14.7643 11.1136 14.0868 11.2667 13.3333H11.8253C12.3392 13.3333 12.8461 13.2146 13.3065 12.9862C13.7669 12.7579 14.1682 12.4263 14.4792 12.0172C14.7902 11.6081 15.0024 11.1327 15.0992 10.628C15.196 10.1233 15.1748 9.60309 15.0373 9.10796H15.0367ZM7.99999 14.6666C7.58781 14.6649 7.18623 14.5359 6.85019 14.2972C6.51414 14.0586 6.26004 13.7219 6.12265 13.3333H9.87732C9.73993 13.7219 9.48583 14.0586 9.14979 14.2972C8.81374 14.5359 8.41216 14.6649 7.99999 14.6666ZM13.4173 11.21C13.2316 11.4564 12.9909 11.6561 12.7144 11.7933C12.4379 11.9304 12.1333 12.0012 11.8247 12H3.99065C3.69118 11.9999 3.39554 11.9326 3.12555 11.803C2.85556 11.6734 2.61812 11.4848 2.43076 11.2512C2.2434 11.0176 2.1109 10.7449 2.04303 10.4532C1.97516 10.1615 1.97367 9.8583 2.03865 9.56596L3.01865 5.15529C3.25489 4.09276 3.83953 3.13969 4.67963 2.44759C5.51972 1.75549 6.56707 1.36407 7.65517 1.33557C8.74327 1.30706 9.80967 1.6431 10.6849 2.29027C11.56 2.93744 12.1938 3.85859 12.4853 4.90729L13.752 9.46462C13.8357 9.76154 13.849 10.0739 13.7909 10.3768C13.7328 10.6798 13.6049 10.9651 13.4173 11.21Z" fill="#4E4E50"/>
</svg>
