<svg width="18" height="18" viewBox="0 0 18 18" fill="none" xmlns="http://www.w3.org/2000/svg">
<path d="M9 1V1.88889V1ZM9 16.1111V17V16.1111ZM17 9H16.1111H17ZM1.88889 9H1H1.88889ZM14.6569 14.6569L14.0284 14.0284L14.6569 14.6569ZM3.97156 3.97156L3.34311 3.34311L3.97156 3.97156ZM14.6569 3.34311L14.0284 3.97156L14.6569 3.34311ZM3.97156 14.0284L3.34311 14.6569L3.97156 14.0284ZM12.5556 9C12.5556 9.94299 12.181 10.8474 11.5142 11.5142C10.8474 12.181 9.94299 12.5556 9 12.5556C8.05701 12.5556 7.15264 12.181 6.48584 11.5142C5.81905 10.8474 5.44444 9.94299 5.44444 9C5.44444 8.05701 5.81905 7.15264 6.48584 6.48584C7.15264 5.81905 8.05701 5.44444 9 5.44444C9.94299 5.44444 10.8474 5.81905 11.5142 6.48584C12.181 7.15264 12.5556 8.05701 12.5556 9V9Z" stroke="#4E4E50" stroke-width="1.5" stroke-linecap="round" stroke-linejoin="round"/>
</svg>
