<svg width="82" height="82" viewBox="0 0 82 82" fill="none" xmlns="http://www.w3.org/2000/svg">
<g filter="url(#filter0_d_104_532)">
<circle cx="41" cy="37" r="16" fill="#5B63E6"/>
</g>
<path d="M43.5885 43.0817L43.5885 34.1766C43.5885 33.7521 43.9326 33.408 44.3571 33.408C44.7816 33.408 45.1257 33.7521 45.1257 34.1766L45.1257 43.0817L46.8881 41.3193C47.1882 41.0191 47.6749 41.0191 47.9751 41.3193C48.2752 41.6195 48.2752 42.1061 47.9751 42.4063L44.9006 45.4808C44.8827 45.4987 44.8639 45.5156 44.8443 45.5317C44.8354 45.539 44.826 45.5453 44.8169 45.5521C44.806 45.5603 44.7953 45.5688 44.7838 45.5764C44.7729 45.5838 44.7616 45.5901 44.7504 45.5968C44.7401 45.603 44.73 45.6095 44.7193 45.6151C44.7079 45.6213 44.6961 45.6265 44.6845 45.6319C44.6734 45.6372 44.6625 45.6427 44.6512 45.6474C44.6398 45.6521 44.6282 45.6559 44.6167 45.66C44.6046 45.6644 44.5926 45.669 44.5802 45.6728C44.5687 45.6762 44.557 45.6788 44.5453 45.6817C44.5326 45.6849 44.5201 45.6885 44.5072 45.691C44.4937 45.6937 44.4801 45.6953 44.4665 45.6972C44.4553 45.6988 44.4443 45.701 44.4329 45.7021C44.3825 45.7071 44.3316 45.7071 44.2812 45.7021C44.2699 45.701 44.2588 45.6988 44.2476 45.6972C44.234 45.6953 44.2203 45.6937 44.2069 45.691C44.194 45.6884 44.1815 45.6849 44.1689 45.6817C44.1572 45.6788 44.1455 45.6762 44.1339 45.6727C44.1216 45.669 44.1096 45.6643 44.0975 45.66C44.0859 45.6558 44.0743 45.652 44.063 45.6474C44.0516 45.6427 44.0408 45.6371 44.0297 45.6319C44.018 45.6264 44.0063 45.6212 43.9948 45.6151C43.9842 45.6094 43.9742 45.6029 43.9639 45.5968C43.9526 45.5901 43.9413 45.5837 43.9303 45.5764C43.9189 45.5688 43.9083 45.5603 43.8973 45.5522C43.8882 45.5453 43.8788 45.539 43.8699 45.5317C43.8504 45.5157 43.8317 45.4989 43.814 45.4811L40.7391 42.4063C40.439 42.1061 40.439 41.6195 40.7391 41.3193C41.0393 41.0191 41.526 41.0191 41.8261 41.3193L43.5885 43.0817Z" fill="white"/>
<path d="M36.623 30.0685C36.6319 30.0611 36.6413 30.0548 36.6505 30.0479C36.6614 30.0398 36.672 30.0313 36.6834 30.0237C36.6943 30.0164 36.7057 30.01 36.717 30.0033C36.7272 29.9972 36.7373 29.9908 36.7478 29.9851C36.7593 29.979 36.7711 29.9738 36.7828 29.9682C36.7939 29.963 36.8047 29.9575 36.816 29.9528C36.8274 29.9481 36.839 29.9443 36.8505 29.9402C36.8626 29.9358 36.8746 29.9312 36.887 29.9275C36.8985 29.924 36.9103 29.9214 36.9219 29.9185C36.9345 29.9153 36.947 29.9117 36.9599 29.9092C36.9734 29.9065 36.987 29.9049 37.0006 29.903C37.0118 29.9014 37.0229 29.8992 37.0342 29.8981C37.0847 29.8931 37.1355 29.8931 37.186 29.8981C37.1973 29.8992 37.2083 29.9013 37.2196 29.903C37.2332 29.9049 37.2468 29.9065 37.2603 29.9092C37.2732 29.9117 37.2856 29.9153 37.2983 29.9185C37.31 29.9214 37.3217 29.924 37.3332 29.9275C37.3456 29.9312 37.3576 29.9358 37.3697 29.9402C37.3812 29.9444 37.3928 29.9481 37.4042 29.9528C37.4155 29.9575 37.4263 29.963 37.4374 29.9682C37.4491 29.9738 37.4609 29.9789 37.4723 29.9851C37.4829 29.9908 37.493 29.9972 37.5032 30.0033C37.5145 30.01 37.5259 30.0164 37.5368 30.0237C37.5482 30.0313 37.5588 30.0398 37.5697 30.0479C37.5789 30.0548 37.5883 30.0612 37.5972 30.0685C37.6165 30.0843 37.6351 30.101 37.6527 30.1186C37.653 30.1189 37.6533 30.1191 37.6535 30.1194L40.728 33.1938C41.0282 33.494 41.0282 33.9807 40.728 34.2808C40.4278 34.581 39.9412 34.581 39.641 34.2808L37.8786 32.5185L37.8786 41.4235C37.8786 41.848 37.5345 42.1921 37.11 42.1921C36.6855 42.1921 36.3414 41.848 36.3414 41.4235L36.3414 32.5185L34.5791 34.2808C34.2789 34.581 33.7922 34.581 33.4921 34.2808C33.1919 33.9807 33.1919 33.494 33.4921 33.1938L36.5665 30.1194C36.5668 30.1191 36.5671 30.1189 36.5674 30.1186C36.5851 30.101 36.6037 30.0843 36.623 30.0685Z" fill="white"/>
<defs>
<filter id="filter0_d_104_532" x="0" y="0" width="82" height="82" filterUnits="userSpaceOnUse" color-interpolation-filters="sRGB">
<feFlood flood-opacity="0" result="BackgroundImageFix"/>
<feColorMatrix in="SourceAlpha" type="matrix" values="0 0 0 0 0 0 0 0 0 0 0 0 0 0 0 0 0 0 127 0" result="hardAlpha"/>
<feMorphology radius="5" operator="dilate" in="SourceAlpha" result="effect1_dropShadow_104_532"/>
<feOffset dy="4"/>
<feGaussianBlur stdDeviation="10"/>
<feComposite in2="hardAlpha" operator="out"/>
<feColorMatrix type="matrix" values="0 0 0 0 0.691667 0 0 0 0 0.709412 0 0 0 0 1 0 0 0 0.4 0"/>
<feBlend mode="normal" in2="BackgroundImageFix" result="effect1_dropShadow_104_532"/>
<feBlend mode="normal" in="SourceGraphic" in2="effect1_dropShadow_104_532" result="shape"/>
</filter>
</defs>
</svg>
