<svg width="16" height="18" viewBox="0 0 16 18" fill="none" xmlns="http://www.w3.org/2000/svg">
<path d="M8.14103 0.337402C9.06859 0.337402 9.97442 0.449579 10.8585 0.673934C11.7426 0.898868 12.5977 1.22149 13.4238 1.64179C13.5542 1.69976 13.6305 1.78295 13.6525 1.89136C13.6739 2.00035 13.6629 2.10557 13.6195 2.20702C13.576 2.30847 13.5035 2.38819 13.4021 2.44616C13.3006 2.50413 13.1774 2.49689 13.0325 2.42442C12.2643 2.0331 11.4707 1.73223 10.6515 1.52178C9.83296 1.31192 8.99613 1.20699 8.14103 1.20699C7.30043 1.20699 6.47432 1.30468 5.6627 1.50004C4.85108 1.69599 4.0757 2.00412 3.33654 2.42442C3.2206 2.49689 3.10842 2.51486 3.00001 2.47833C2.89102 2.44239 2.8003 2.36645 2.72783 2.2505C2.68435 2.13456 2.67363 2.02934 2.69565 1.93484C2.7171 1.84092 2.7858 1.75773 2.90175 1.68527C3.71337 1.25047 4.56122 0.917129 5.4453 0.685238C6.32938 0.453348 7.22796 0.337402 8.14103 0.337402ZM8.14103 2.4679C9.67731 2.4679 11.1266 2.79747 12.489 3.45662C13.8513 4.11635 14.9891 5.06942 15.9021 6.31584C15.9891 6.44628 16.0181 6.56222 15.9891 6.66367C15.9601 6.76513 15.9021 6.85209 15.8152 6.92455C15.7282 6.99702 15.6268 7.02948 15.5108 7.02194C15.3949 7.01499 15.2934 6.95354 15.2065 6.83759C14.4093 5.70712 13.3841 4.84101 12.1307 4.23926C10.8768 3.63808 9.54687 3.33749 8.14103 3.33749C6.73519 3.33749 5.41631 3.63808 4.18439 4.23926C2.95247 4.84101 1.93071 5.70712 1.11909 6.83759C1.03213 6.96803 0.930676 7.0405 0.81473 7.05499C0.698785 7.06948 0.597333 7.0405 0.510374 6.96803C0.408921 6.89556 0.343702 6.80484 0.314716 6.69585C0.285729 6.58744 0.321962 6.47526 0.423415 6.35932C1.3075 5.1274 2.43072 4.17085 3.79308 3.48967C5.15544 2.80849 6.60475 2.4679 8.14103 2.4679ZM8.14103 6.62019C9.4889 6.62019 10.6484 7.07296 11.6194 7.9785C12.5904 8.88461 13.076 9.9971 13.076 11.316C13.076 11.4464 13.036 11.5514 12.956 11.6308C12.8765 11.7108 12.7716 11.7508 12.6412 11.7508C12.5252 11.7508 12.4238 11.7108 12.3368 11.6308C12.2498 11.5514 12.2064 11.4464 12.2064 11.316C12.2064 10.229 11.804 9.3194 10.9994 8.58721C10.1953 7.85559 9.24251 7.48979 8.14103 7.48979C7.03955 7.48979 6.09373 7.85559 5.30356 8.58721C4.51397 9.3194 4.11917 10.229 4.11917 11.316C4.11917 12.4899 4.32208 13.4862 4.72789 14.3048C5.1337 15.1239 5.72792 15.9466 6.51055 16.7727C6.59751 16.8596 6.64099 16.9611 6.64099 17.077C6.64099 17.193 6.59751 17.2944 6.51055 17.3814C6.42359 17.4683 6.32214 17.5118 6.20619 17.5118C6.09025 17.5118 5.98879 17.4683 5.90184 17.3814C5.04674 16.4828 4.39107 15.566 3.93482 14.6309C3.478 13.6963 3.24958 12.5914 3.24958 11.316C3.24958 9.9971 3.72786 8.88461 4.68441 7.9785C5.64096 7.07296 6.79317 6.62019 8.14103 6.62019ZM8.11929 10.8812C8.24973 10.8812 8.35495 10.9247 8.43495 11.0116C8.51438 11.0986 8.55409 11.2 8.55409 11.316C8.55409 12.403 8.9454 13.2943 9.72803 13.99C10.5107 14.6856 11.4237 15.0335 12.4672 15.0335C12.5542 15.0335 12.6774 15.0262 12.8368 15.0117C12.9962 14.9973 13.1629 14.9755 13.3368 14.9465C13.4673 14.9175 13.5797 14.9355 13.6742 15.0004C13.7682 15.0659 13.8296 15.1639 13.8586 15.2944C13.8876 15.4103 13.8658 15.5118 13.7934 15.5987C13.7209 15.6857 13.6267 15.7436 13.5108 15.7726C13.2499 15.8451 13.0218 15.8851 12.8264 15.8926C12.6304 15.8996 12.5107 15.9031 12.4672 15.9031C11.1774 15.9031 10.0576 15.4683 9.10802 14.5987C8.159 13.7291 7.6845 12.6349 7.6845 11.316C7.6845 11.2 7.72421 11.0986 7.80363 11.0116C7.88363 10.9247 7.98885 10.8812 8.11929 10.8812ZM8.14103 8.75069C8.88018 8.75069 9.51064 8.99708 10.0324 9.48984C10.5541 9.98261 10.815 10.5913 10.815 11.316C10.815 11.7943 10.9962 12.1966 11.3585 12.523C11.7208 12.8488 12.1484 13.0117 12.6412 13.0117C13.1339 13.0117 13.5542 12.8488 13.9021 12.523C14.2499 12.1966 14.4238 11.7943 14.4238 11.316C14.4238 9.63478 13.8079 8.22169 12.5759 7.07673C11.344 5.93177 9.87297 5.35929 8.16277 5.35929C6.45258 5.35929 4.98152 5.93177 3.7496 7.07673C2.51768 8.22169 1.90172 9.62753 1.90172 11.2942C1.90172 11.6421 1.93447 12.0769 1.99998 12.5986C2.06491 13.1204 2.22057 13.7291 2.46695 14.4248C2.51043 14.5552 2.50695 14.6712 2.45652 14.7726C2.4055 14.8741 2.32202 14.9465 2.20608 14.99C2.09013 15.0335 1.97766 15.0297 1.86867 14.9787C1.76027 14.9283 1.68432 14.8451 1.64084 14.7291C1.42344 14.1639 1.26779 13.6021 1.17387 13.0439C1.07938 12.4862 1.03213 11.9102 1.03213 11.316C1.03213 9.38839 1.73157 7.7724 3.13045 6.46802C4.52875 5.16363 6.19895 4.51144 8.14103 4.51144C10.0976 4.51144 11.7788 5.16363 13.1847 6.46802C14.5905 7.7724 15.2934 9.38839 15.2934 11.316C15.2934 12.0406 15.0363 12.6459 14.5221 13.1317C14.0073 13.6169 13.3803 13.8595 12.6412 13.8595C11.902 13.8595 11.2681 13.6169 10.7394 13.1317C10.2101 12.6459 9.94543 12.0406 9.94543 11.316C9.94543 10.8377 9.76803 10.4354 9.41324 10.109C9.05787 9.78319 8.6338 9.62028 8.14103 9.62028C7.64826 9.62028 7.22419 9.78319 6.86882 10.109C6.51403 10.4354 6.33663 10.8377 6.33663 11.316C6.33663 12.7218 6.75345 13.8958 7.5871 14.8378C8.42017 15.7799 9.49614 16.4393 10.815 16.8161C10.9455 16.8741 11.0324 16.9501 11.0759 17.044C11.1194 17.1385 11.1266 17.2437 11.0976 17.3596C11.0687 17.4611 11.0107 17.548 10.9237 17.6205C10.8368 17.693 10.7281 17.7147 10.5976 17.6857C9.09033 17.2944 7.85842 16.5408 6.90187 15.4248C5.94532 14.3088 5.46704 12.9392 5.46704 11.316C5.46704 10.5913 5.72792 9.98261 6.24967 9.48984C6.77143 8.99708 7.40188 8.75069 8.14103 8.75069Z" fill="#4E4E50"/>
</svg>
