<svg width="202" height="205" viewBox="0 0 202 205" fill="none" xmlns="http://www.w3.org/2000/svg">
<path fill-rule="evenodd" clip-rule="evenodd" d="M2.4399 -0.191231L108.196 -93.9801C111.372 -96.7967 115.559 -96.5935 118.75 -93.8326L227.001 -0.0633087C230.185 2.69432 230.049 8.6981 226.861 11.3672L116.337 103.864C113.137 106.543 108.926 106.527 105.783 103.717L2.30057 11.2361C-0.83893 8.42926 -0.738961 2.6255 2.4399 -0.194435V-0.191231Z" fill="#C9CCFF" fill-opacity="0.05"/>
<path fill-rule="evenodd" clip-rule="evenodd" d="M4.11784 98.749L109.874 4.96003C113.05 2.14338 117.237 2.34674 120.428 5.10765L228.679 98.8768C231.863 101.634 231.727 107.638 228.539 110.307L118.015 202.804C114.815 205.483 110.604 205.467 107.461 202.657L3.97859 110.176C0.839084 107.369 0.93898 101.566 4.11784 98.7457V98.749Z" fill="#C9CCFF" fill-opacity="0.05"/>
<path fill-rule="evenodd" clip-rule="evenodd" d="M52.3571 55.9681L109.873 4.95693C113.049 2.14028 117.236 2.34348 120.427 5.10439L176.405 53.5942L116.34 103.864C113.14 106.543 108.929 106.527 105.786 103.717L52.3571 55.9681Z" fill="white" fill-opacity="0.05"/>
</svg>
