<svg width="33" height="13" viewBox="0 0 33 13" fill="none" xmlns="http://www.w3.org/2000/svg">
<path d="M7.992 0.815999V7.36C7.992 9.488 6.68 10.656 4.888 10.56C3.224 10.496 2.04 9.392 2.04 7.36V0.815999H0.264V7.36C0.264 10.544 2.392 12.144 4.888 12.208C7.592 12.304 9.768 10.656 9.768 7.36V0.815999H7.992ZM20.2473 2.368C19.3033 0.863999 17.6873 0.48 16.0713 0.48C14.0553 0.48 11.7353 1.376 11.7513 3.696C11.7513 6.096 13.8633 6.656 16.0873 6.96C17.6553 7.168 18.9513 7.584 18.9513 8.8C18.9513 10.208 17.4633 10.656 16.1193 10.656C14.8233 10.656 13.4313 10.176 12.6313 8.816L11.2873 9.712C12.3113 11.6 13.9593 12.256 16.1033 12.256C18.4393 12.256 20.7273 11.312 20.7433 8.8C20.7433 6.288 18.5513 5.648 16.2473 5.328C14.7753 5.12 13.5273 4.816 13.5273 3.728C13.5273 2.656 14.6153 2.032 16.1193 2.032C17.2873 2.048 18.3593 2.512 18.8873 3.28L20.2473 2.368ZM22.5218 0.799999V12C23.8658 12 25.4178 12 26.7618 12C30.6818 12 32.4418 9.136 32.3778 6.304C32.3298 3.536 30.5858 0.799999 26.7618 0.799999H22.5218ZM24.2978 2.512H26.7618C29.4018 2.512 30.5538 4.4 30.6018 6.288C30.6498 8.256 29.4978 10.272 26.7618 10.272H24.2978V2.512Z" fill="#303C5B"/>
</svg>
