<svg width="26" height="18" viewBox="0 0 26 18" fill="none" xmlns="http://www.w3.org/2000/svg">
<path d="M23.2913 1.29429L9.47229 15.1123C9.37938 15.2056 9.26897 15.2796 9.14738 15.3301C9.0258 15.3806 8.89544 15.4066 8.76379 15.4066C8.63214 15.4066 8.50178 15.3806 8.38019 15.3301C8.25861 15.2796 8.1482 15.2056 8.05529 15.1123L2.71129 9.76329C2.61838 9.67001 2.50797 9.596 2.38638 9.5455C2.2648 9.495 2.13444 9.469 2.00279 9.469C1.87114 9.469 1.74078 9.495 1.61919 9.5455C1.49761 9.596 1.3872 9.67001 1.29429 9.76329V9.76329C1.20101 9.8562 1.127 9.96661 1.0765 10.0882C1.026 10.2098 1 10.3401 1 10.4718C1 10.6034 1.026 10.7338 1.0765 10.8554C1.127 10.977 1.20101 11.0874 1.29429 11.1803L6.64029 16.5253C7.20424 17.0882 7.96849 17.4043 8.76529 17.4043C9.56209 17.4043 10.3263 17.0882 10.8903 16.5253L24.7083 2.71029C24.8014 2.6174 24.8753 2.50705 24.9257 2.38556C24.9761 2.26407 25.0021 2.13382 25.0021 2.00229C25.0021 1.87075 24.9761 1.74051 24.9257 1.61902C24.8753 1.49753 24.8014 1.38718 24.7083 1.29429C24.6154 1.20101 24.505 1.127 24.3834 1.0765C24.2618 1.026 24.1314 1 23.9998 1C23.8681 1 23.7378 1.026 23.6162 1.0765C23.4946 1.127 23.3842 1.20101 23.2913 1.29429Z" fill="white" stroke="white"/>
</svg>
