<svg width="12" height="12" viewBox="0 0 12 12" fill="none" xmlns="http://www.w3.org/2000/svg">
<path d="M7.2 3.6001H1.2C0.5382 3.6001 0 4.1383 0 4.8001V10.8001C0 11.4619 0.5382 12.0001 1.2 12.0001H7.2C7.8618 12.0001 8.4 11.4619 8.4 10.8001V4.8001C8.4 4.1383 7.8618 3.6001 7.2 3.6001Z" fill="#5B63E6"/>
<path d="M10.8001 0H4.8001C4.48184 0 4.17661 0.126428 3.95157 0.351472C3.72653 0.576515 3.6001 0.88174 3.6001 1.2V2.4H8.4001C8.71836 2.4 9.02358 2.52643 9.24863 2.75147C9.47367 2.97652 9.6001 3.28174 9.6001 3.6V8.4H10.8001C11.1184 8.4 11.4236 8.27357 11.6486 8.04853C11.8737 7.82348 12.0001 7.51826 12.0001 7.2V1.2C12.0001 0.88174 11.8737 0.576515 11.6486 0.351472C11.4236 0.126428 11.1184 0 10.8001 0Z" fill="#5B63E6"/>
</svg>
